PathFileType	4	(X/Y/Z)	c:/Users/goper/Files/vsCode/490R/osim_files/C05/C05_Static.trc
DataRate	CameraRate	NumFrames	NumMarkers	Units                	OrigDataRate	OrigDataStartFrame	OrigNumFrames
250.00	250.00	10	36	mm	250.0	1	1840
                Frame#	Time	LPSIS			LASIS			LTH1			LTH2			LTH3			LTH4			LLFE			LMFE			LSH1			LSH2			LSH3			LSH4			LLMAL			LMMAL			LCAL			LMTP5			LTOE			LMTP1			RPSIS			RASIS			RTH1			RTH2			RTH3			RTH4			RLFE			RMFE			RSH1			RSH2			RSH3			RSH4			RLMAL			RMMAL			RCAL			RMTP1			RTOE			RMTP5		
		X1	Y1	Z1	X2	Y2	Z2	X3	Y3	Z3	X4	Y4	Z4	X5	Y5	Z5	X6	Y6	Z6	X7	Y7	Z7	X8	Y8	Z8	X9	Y9	Z9	X10	Y10	Z10	X11	Y11	Z11	X12	Y12	Z12	X13	Y13	Z13	X14	Y14	Z14	X15	Y15	Z15	X16	Y16	Z16	X17	Y17	Z17	X18	Y18	Z18	X19	Y19	Z19	X20	Y20	Z20	X21	Y21	Z21	X22	Y22	Z22	X23	Y23	Z23	X24	Y24	Z24	X25	Y25	Z25	X26	Y26	Z26	X27	Y27	Z27	X28	Y28	Z28	X29	Y29	Z29	X30	Y30	Z30	X31	Y31	Z31	X32	Y32	Z32	X33	Y33	Z33	X34	Y34	Z34	X35	Y35	Z35	X36	Y36	Z36

1	0.00000	-423.27850	1062.98279	414.49390	-230.58510	1023.11957	349.34042	-371.45450	714.58374	281.16428	-367.12735	651.74200	283.89417	-294.88351	713.24487	277.18823	-300.33038	651.97662	280.94711	-333.86716	542.94940	290.91940	-335.56216	522.19055	408.59097	-436.40009	370.42215	277.74911	-430.77737	327.34592	277.13345	-374.71243	370.74185	258.76282	-380.23648	327.61249	262.67496	-396.23636	97.17339	287.61102	-359.87857	108.23875	367.56625	-447.77219	68.41672	343.28809	-262.06110	40.87922	237.87625	-216.82135	65.11459	292.73801	-224.14326	45.56124	341.47110	-415.67068	1067.68237	522.06543	-222.87679	1025.96655	580.77417	-360.54504	717.09088	659.26093	-361.29535	654.08698	655.86658	-285.84918	710.18335	664.33569	-296.96616	648.10938	660.91449	-314.61725	535.49493	645.69928	-341.35654	507.39413	541.58759	-400.07898	386.18747	681.19934	-396.51474	338.26553	679.45367	-340.18222	382.28796	673.99231	-345.26480	335.84219	672.84387	-377.04492	96.26691	649.11346	-364.52747	109.39878	564.23792	-445.41583	68.42036	608.16852	-232.75549	40.73760	557.80347	-207.11104	63.74302	603.37323	-249.71587	33.96424	672.64008
2	0.00400	-423.30304	1063.00903	414.50723	-230.58311	1023.11945	349.35043	-371.47028	714.57788	281.17584	-367.09204	651.72925	283.91400	-294.89670	713.24194	277.18130	-300.32925	651.98181	280.95972	-333.87051	542.95056	290.92935	-335.54794	522.21136	408.59445	-436.36838	370.43433	277.74316	-430.74985	327.32840	277.13870	-374.71796	370.75674	258.77451	-380.25851	327.61768	262.67026	-396.21646	97.18616	287.59729	-359.84442	108.25082	367.56711	-447.77280	68.44657	343.29111	-262.05725	40.88407	237.89694	-216.83018	65.11028	292.72473	-224.07600	45.60208	341.48752	-415.60202	1067.68652	522.06775	-222.86214	1025.97388	580.76483	-360.52133	717.11670	659.27747	-361.29004	654.08398	655.87128	-285.79181	710.21582	664.34802	-296.96066	648.14746	660.90466	-314.59912	535.51904	645.69812	-341.33060	507.34247	541.61902	-400.05295	386.19583	681.20129	-396.50491	338.30627	679.45917	-340.16837	382.30490	673.98584	-345.21857	335.89688	672.84064	-377.00784	96.29937	649.13165	-364.53555	109.40467	564.24530	-445.41281	68.43389	608.15857	-232.74748	40.75517	557.80719	-207.09102	63.78402	603.36774	-249.71353	33.98238	672.63422
3	0.00800	-423.31458	1063.04150	414.50140	-230.56952	1023.13257	349.34787	-371.46115	714.60376	281.17618	-367.09326	651.76007	283.91940	-294.89212	713.26599	277.16302	-300.30188	652.02258	280.94534	-333.84549	542.99390	290.93518	-335.53287	522.23859	408.58582	-436.39334	370.46945	277.74789	-430.78839	327.32330	277.13913	-374.69324	370.78192	258.76074	-380.22913	327.65198	262.67657	-396.22833	97.21708	287.60571	-359.84412	108.28320	367.54526	-447.75378	68.45468	343.31906	-262.04974	40.91323	237.87001	-216.84731	65.13444	292.71439	-224.04761	45.61673	341.48529	-415.60611	1067.71008	522.06824	-222.84683	1025.99695	580.77106	-360.51901	717.14447	659.27234	-361.28281	654.11682	655.86334	-285.81924	710.22571	664.32788	-296.96930	648.14783	660.89795	-314.59018	535.52332	645.68384	-341.36444	507.31506	541.63641	-400.06497	386.21198	681.19116	-396.51343	338.33133	679.46649	-340.14175	382.33246	673.97174	-345.23349	335.89731	672.83545	-377.00195	96.32401	649.10785	-364.51987	109.43679	564.23285	-445.40219	68.45917	608.14752	-232.74562	40.77121	557.80951	-207.06793	63.82687	603.36011	-249.71274	33.99732	672.63959
4	0.01200	-423.33536	1063.07446	414.48593	-230.57246	1023.15106	349.37555	-371.59863	714.51239	281.10028	-367.09323	651.76056	283.93753	-294.85007	713.29578	277.18896	-300.28763	652.05029	280.96014	-333.84909	543.00842	290.93393	-335.54388	522.25220	408.60046	-436.37280	370.49265	277.73538	-430.73682	327.39157	277.13348	-374.70737	370.80048	258.76498	-380.23575	327.65521	262.69025	-396.22275	97.24258	287.60538	-359.87906	108.28876	367.54248	-447.79346	68.49461	343.28561	-262.06686	40.91964	237.88246	-216.84343	65.15907	292.71686	-224.10124	45.62016	341.48080	-415.64395	1067.75354	522.08350	-222.85045	1026.01733	580.77863	-360.53888	717.16724	659.27710	-361.32675	654.10516	655.84558	-285.81454	710.25055	664.34979	-296.99182	648.14850	660.90155	-314.60519	535.54041	645.69562	-341.41660	507.31717	541.63550	-400.07944	386.21939	681.19495	-396.52188	338.34518	679.45477	-340.18048	382.32709	673.98334	-345.22580	335.91495	672.83417	-377.02078	96.34673	649.10199	-364.53305	109.45306	564.24384	-445.42999	68.50465	608.15533	-232.73137	40.79760	557.81122	-207.05049	63.84826	603.36310	-249.71761	34.00769	672.63440
5	0.01600	-423.31134	1063.07166	414.47650	-230.58041	1023.15363	349.36719	-371.41330	714.60272	281.16898	-367.08664	651.76770	283.91513	-294.84250	713.31195	277.19336	-300.68054	651.76892	281.17075	-333.82800	543.03119	290.93149	-335.53802	522.25305	408.60184	-436.37158	370.50797	277.73209	-430.72174	327.43173	277.13846	-374.68616	370.82410	258.76849	-380.25552	327.65375	262.66669	-396.21484	97.24976	287.58011	-359.89639	108.29566	367.54724	-447.76468	68.47725	343.28198	-262.10428	40.90042	237.88161	-216.84175	65.17075	292.72202	-223.99231	45.59290	341.37790	-415.66464	1067.74963	522.06378	-222.87169	1026.02441	580.80811	-360.56137	717.17151	659.27582	-361.38031	654.11047	655.82355	-285.85498	710.23322	664.36230	-296.96027	648.15735	660.91187	-314.63800	535.54004	645.71259	-341.42047	507.34937	541.61450	-400.10092	386.22623	681.18146	-396.56683	338.34415	679.44122	-340.19287	382.33771	674.01544	-345.25150	335.91711	672.84601	-377.05157	96.35754	649.10626	-364.52026	109.47085	564.23767	-445.44043	68.51754	608.16992	-232.74063	40.82568	557.81311	-207.04283	63.87803	603.36340	-249.72194	34.00621	672.64197
6	0.02000	-423.32098	1063.09656	414.44757	-230.57443	1023.16675	349.38416	-371.45361	714.60449	281.17331	-367.08972	651.76758	283.91367	-294.81998	713.32526	277.18811	-300.23267	652.10052	280.95029	-333.83762	543.02985	290.93549	-335.54459	522.25171	408.57974	-436.37131	370.52014	277.72989	-430.69699	327.42566	277.14090	-374.67465	370.83298	258.75940	-380.22794	327.66089	262.66354	-396.21179	97.26631	287.58099	-359.91470	108.27125	367.55963	-447.80826	68.47425	343.28522	-262.12778	40.89479	237.88943	-216.86967	65.14521	292.75061	-224.07578	45.47804	341.42975	-415.63928	1067.72449	522.08307	-222.87228	1026.01550	580.82037	-360.56882	717.16119	659.27924	-361.37021	654.08362	655.87714	-285.88327	710.23303	664.34857	-297.03790	648.12445	660.91119	-314.66638	535.50146	645.71368	-341.38217	507.38831	541.59882	-400.12436	386.21152	681.18262	-396.56210	338.34506	679.44000	-340.22769	382.30951	674.01038	-345.28513	335.89667	672.85254	-377.05353	96.35489	649.10504	-364.52957	109.46992	564.23962	-445.43338	68.51659	608.20844	-232.73135	40.81987	557.81445	-207.03743	63.89286	603.35406	-249.73303	34.00779	672.64838
7	0.02400	-423.32343	1063.07568	414.43100	-230.82936	1023.11493	349.46259	-371.43469	714.64777	281.15012	-367.11728	651.82806	283.91031	-294.83929	713.32819	277.19739	-300.26074	652.09064	280.98907	-333.83145	543.05194	290.94321	-335.52637	522.27722	408.60077	-436.36407	370.54800	277.72644	-430.74603	327.47159	277.16745	-374.68481	370.83380	258.76535	-380.24585	327.69733	262.68579	-396.23828	97.28066	287.57217	-359.92249	108.25203	367.55411	-447.75845	68.43365	343.29236	-262.09210	40.89779	237.89679	-216.86595	65.13661	292.78009	-223.72693	45.66529	341.53152	-415.62173	1067.69470	522.08832	-222.87447	1026.02075	580.82404	-360.55783	717.11920	659.27277	-361.30289	654.04578	655.86780	-285.86819	710.22284	664.38574	-296.98984	648.11182	660.96381	-314.68726	535.49445	645.72571	-341.46323	507.37000	541.65161	-400.08917	386.18607	681.18085	-396.55161	338.30981	679.44556	-340.21509	382.29398	674.02930	-345.29117	335.87122	672.85870	-377.05133	96.33827	649.10669	-364.53488	109.48389	564.23657	-445.43222	68.51675	608.22076	-232.74486	40.85864	557.82306	-207.04405	63.90660	603.37183	-249.84303	33.80502	672.52832
8	0.02800	-423.27869	1063.05420	414.44595	-230.82097	1023.12115	349.46222	-371.40622	714.64154	281.16898	-367.03653	651.83148	283.90781	-294.84253	713.32214	277.22787	-300.22241	652.07910	280.98203	-333.84372	543.03613	290.94537	-335.54868	522.24762	408.61490	-436.36328	370.52704	277.74155	-430.73859	327.52808	277.18781	-374.69534	370.83743	258.75964	-380.21948	327.71057	262.68198	-396.24667	97.27164	287.58966	-359.90677	108.24502	367.56873	-447.73666	68.39544	343.31387	-262.08417	40.88884	237.91287	-216.86478	65.12849	292.79089	-224.23758	45.43347	341.55914	-415.56973	1067.66382	522.10034	-222.89944	1025.99634	580.85150	-360.55539	717.09253	659.28632	-361.30591	654.02332	655.86841	-285.87369	710.18988	664.38885	-297.02957	648.07452	660.95874	-314.69141	535.46521	645.74225	-341.44696	507.38614	541.63672	-400.05078	386.17151	681.20563	-396.53345	338.28870	679.47241	-340.22888	382.26010	674.04199	-345.29303	335.84561	672.87311	-377.04169	96.31316	649.12091	-364.52060	109.48895	564.23431	-445.44553	68.52090	608.22571	-232.71118	40.86356	557.82318	-207.07037	63.87701	603.38812	-249.82967	33.80045	672.53784
9	0.03200	-423.29901	1063.02576	414.46048	-230.57243	1023.15643	349.42950	-371.40509	714.64172	281.15521	-367.05801	651.84747	283.91818	-294.82101	713.30194	277.21909	-300.24176	652.07111	280.99164	-333.86835	543.01099	290.95792	-335.55133	522.24860	408.60468	-436.40555	370.52792	277.74960	-431.90167	326.52936	278.09836	-374.70886	370.82709	258.77075	-380.21680	327.71802	262.67593	-396.24002	97.26866	287.57925	-359.91260	108.23460	367.56644	-447.72543	68.36421	343.32147	-262.09955	40.90138	237.92375	-216.87900	65.11478	292.81229	-224.24260	45.40241	341.55215	-415.58203	1067.62598	522.12427	-222.90385	1025.98389	580.85693	-360.53137	717.06378	659.30280	-361.29456	654.00952	655.89368	-285.88834	710.17230	664.40692	-297.01053	648.05798	660.96594	-314.67200	535.46655	645.73590	-341.35486	507.42551	541.58496	-400.04004	386.16675	681.21936	-396.53726	338.27423	679.47180	-340.26453	382.24741	674.04132	-345.32092	335.82816	672.89972	-377.04401	96.30238	649.12018	-364.54147	109.48087	564.23181	-445.35513	68.57515	608.15814	-232.71992	40.86708	557.82635	-207.08881	63.87117	603.38861	-249.84889	33.79833	672.55524
10	0.03600	-423.27533	1063.02429	414.46542	-230.79874	1023.12469	349.47617	-371.37616	714.68170	281.14822	-367.01736	651.85931	283.92181	-294.86475	713.30463	277.20203	-300.27817	652.03735	281.01038	-333.87399	542.99402	290.96310	-335.52377	522.26251	408.64206	-436.38455	370.52084	277.74869	-430.69690	327.49869	277.15945	-374.70599	370.82468	258.76465	-380.22391	327.73560	262.67047	-396.25540	97.26869	287.59723	-359.91064	108.25000	367.58377	-447.73822	68.36784	343.33408	-262.07944	40.92732	237.92853	-216.88866	65.11102	292.81995	-224.29271	45.39833	341.58279	-415.59915	1067.62170	522.13934	-222.91046	1025.97314	580.86646	-360.53336	717.06812	659.30182	-361.28094	654.01971	655.91248	-285.90390	710.15753	664.43823	-297.05167	648.06256	660.98376	-314.69836	535.45032	645.75024	-341.28342	507.44742	541.56793	-400.05811	386.16742	681.22784	-396.51242	338.26108	679.48596	-340.29013	382.22485	674.05225	-345.33716	335.83487	672.91663	-377.03748	96.29478	649.14746	-364.52032	109.48778	564.24017	-445.44434	68.50653	608.26404	-232.73885	40.86929	557.82007	-207.11223	63.84585	603.41095	-249.87856	33.80164	672.56433
